<svg xmlns="http://www.w3.org/2000/svg"
  color-rendering="optimizeQuality"
  shape-rendering="geometricPrecision"
  viewBox="0 0 16 16.00"
  aria-hidden="true"
  id="logo"
  viewBox="0 0 16 16">
  <defs>
    <radialGradient
      id="a"
      r="69%"
      cx="2.3%"
      cy="2.3%"
      fx="9.6%"
      fy="9.6%"
      gradientUnits="objectBoundingBox">
      <stop
        offset="0%"
        stop-color="var(--zee-primary-variant-400)" />
      <stop
        offset="32%"
        stop-color="var(--zee-primary-variant)" />
      <stop
        offset="100%"
        stop-color="var(--zee-primary)" />
    </radialGradient>
    <radialGradient
      id="b"
      href="#a"
      gradientUnits="objectBoundingBox">
      <stop
        offset="0%"
        stop-color="var(--zee-alternate-variant-400)" />
      <stop
        offset="23%"
        stop-color="var(--zee-alternate-variant)" />
      <stop
        offset="100%"
        stop-color="var(--zee-alternate)" />
    </radialGradient>
  </defs>
  <path
    fill="url(#a)"
    d="M7.44 9.54H6.1C5.09 9.59 4.5 9.76 4.43 11.5V15.94C0.05 15.94 0.05 15.94 0.05 13.96V2.06C0.05 0.08 0.05 0.08 4.43 0.08V4.51C4.43 6.14 5.09 6.42 6.1 6.48H9.9C10.92 6.41 11.57 6.14 11.57 4.52V0.08C15.97 0.08 15.95 0.08 15.95 2.06V13.96C15.95 15.94 15.97 15.94 11.57 15.94V11.5C11.58 9.76 10.92 9.6 9.9 9.54ZM7.44 9.54" />
  <path
    fill="url(#b)"
    d="M8 3.31C7.44 3.31 7.44 2.46 8.02 2.46H10.78V1.31C10.78 0.91 10.78 0.05 9.98 0.05L6.22 0.08C5.22 0.08 5.22 0.87 5.22 1.27V4.44C5.22 4.84 5.22 5.7 6.22 5.7L9.98 5.71C10.78 5.72 10.78 4.85 10.78 4.46V3.31ZM8.01 13.54C7.45 13.54 7.45 12.69 8.03 12.69H10.79V11.54C10.79 11.15 10.79 10.28 9.99 10.28L6.23 10.31C5.23 10.31 5.23 11.11 5.23 11.5V14.68C5.23 15.07 5.23 15.94 6.23 15.94L9.99 15.95C10.79 15.95 10.79 15.09 10.79 14.69V13.54ZM8.01 13.54" />
</svg>